# xmcd
#
# Track frame offsets:
#   150
#   25600
#   37535
#   50081
#   64486
#   78559
#   98169
#   115868
#   134449
#   149574
#   162469
#   176576
#   190839
#   208512
#   218332
#   231866
#   242337
#   256727
#   270792
#   288151
#
# Disc length: 4081 seconds
#
# Revision: 0
# Processed by: cddbd v1.5.2PL0 Copyright (c) Steve Scherf et al.
# Submitted via: GXTranscoder 2.0.1939
#
DISCID=100fef14
DTITLE=Nej - Nejlepsi country vyber vsech dob [CD1)
DYEAR=2007
DGENRE=Country
TTITLE0=Smes pisni (Tucny)
TTITLE1=Kocovni herci (Nedved)
TTITLE2=To tenkrat v ctyricatom patom (Vycital, Danek, Bob
TTITLE3=Ptaci nareci (Gott)
TTITLE4=Tisic mil (Vondrackova, Matuska)
TTITLE5=Balicek karet (Cerny, Rangers)
TTITLE6=Zavidim (Urbankova)
TTITLE7=Az me andele (Spaleny)
TTITLE8=Az na vrcholky hor (Martinova)
TTITLE9=Ved me dal, cesto ma (Bobek)
TTITLE10=Nakladak (Cernocka)
TTITLE11=Severni vitr (Uhlir)
TTITLE12=Co se bude dit (Hoffmann)
TTITLE13=Midnight flyer (McCoy, Druha trava)
TTITLE14=Ja tu zemi znam (Vodicka)
TTITLE15=Zvednete kotvy (Krestan, Vycital, Rangers)
TTITLE16=Zachrante milenky (Smolik)
TTITLE17=Na ceste (Danek)
TTITLE18=Ruze z texasu (Matuska)
TTITLE19=Tam u nebeskych bran (Tucny)
EXTD=
EXTT0=
EXTT1=
EXTT2=
EXTT3=
EXTT4=
EXTT5=
EXTT6=
EXTT7=
EXTT8=
EXTT9=
EXTT10=
EXTT11=
EXTT12=
EXTT13=
EXTT14=
EXTT15=
EXTT16=
EXTT17=
EXTT18=
EXTT19=
PLAYORDER=
